# xmcd CD database file
#
# Track frame offsets:
#	150
#	5620
#	35402
#	52227
#	57810
#	81900
#	90207
#	114012
#	122230
#	166930
#	169670
#	188577
#	208475
#	215415
#	236165
#	239355
#	261235
#	314407
#	331072
#
# Disc length: 4680 seconds
#
# Revision: 0
# Processed by: cddbd v1.5.1PL0 Copyright (c) Steve Scherf et al.
# Submitted via: CDex 1.51
#
DISCID=05124613
DTITLE=生駒奈治美・神谷けいこ・他 - ネオ・ジオ　DJステーションinねおちゅぴ
DYEAR=1900
DGENRE=ゲーム関連
TTITLE0=「早く来ないかなあ、ミカ…」
TTITLE1=京のポエム（今日のポエム）
TTITLE2=野中政宏/PIECES
TTITLE3=「待ってたんだよお、ミカ！」
TTITLE4=話そうエングリッシュ
TTITLE5=「もしかして二人の趣味は違うのかしら!?」
TTITLE6=生駒治美・神谷けいこ・金月真美・麻績村まゆ子/HEAVY BABY'S II
TTITLE7=「ホットコーラ買ってこいよ！」
TTITLE8=ブルー・マリー探偵社
TTITLE9=「いつものゲーセンへ行こうぜ！」
TTITLE10=安井邦彦/NEVER LOSE MY WAY
TTITLE11=ソバ処・八神庵物語（予告編）
TTITLE12=「IN カラオケBOX1」
TTITLE13=B.O.F.ストーリーズ外伝 カラオケボックスにて
TTITLE14=「IN カラオケBOX2」
TTITLE15=るるーず物語（予告編）
TTITLE16=タケシ＆ミカ　K.O.F.への道
TTITLE17=「帰り道…」
TTITLE18=コング桑田/Kong's Blues
EXTD=
EXTT0=
EXTT1=
EXTT2=
EXTT3=
EXTT4=
EXTT5=
EXTT6=
EXTT7=
EXTT8=
EXTT9=
EXTT10=
EXTT11=
EXTT12=
EXTT13=
EXTT14=
EXTT15=
EXTT16=
EXTT17=
EXTT18=
PLAYORDER=
